<svg width="85" height="149" viewBox="0 0 85 149" fill="none" xmlns="http://www.w3.org/2000/svg">
<g style="mix-blend-mode:multiply" clip-path="url(#clip0_604_2917)">
<path d="M34.9412 115.348H0.743164V116.151H34.9412V115.348Z" fill="#D24A43"/>
<path d="M50.3963 124.797C50.3963 124.699 50.3567 124.621 50.2973 124.542C50.218 124.484 50.1387 124.444 50.0397 124.444H48.9697C48.514 124.444 48.1772 124.542 47.9593 124.758C47.7413 124.954 47.6422 125.209 47.6422 125.523V125.738C47.6422 125.993 47.7017 126.209 47.8404 126.405C47.9593 126.581 48.1574 126.719 48.3952 126.777C48.1574 127.15 47.9196 127.562 47.6819 127.973C47.6224 128.071 47.6026 128.15 47.6026 128.228C47.6026 128.326 47.6422 128.385 47.7017 128.444C47.7611 128.503 47.8404 128.522 47.9394 128.522C48.0979 128.522 48.2168 128.464 48.2763 128.326C48.6131 127.64 48.8905 127.15 49.0886 126.836H49.7028V128.189C49.7028 128.287 49.7425 128.366 49.8019 128.424C49.8614 128.483 49.9406 128.522 50.0397 128.522C50.1387 128.522 50.218 128.483 50.2973 128.424C50.3765 128.366 50.3963 128.267 50.3963 128.189V124.797ZM48.9697 126.287C48.732 126.287 48.5537 126.229 48.4546 126.131C48.3555 126.032 48.2961 125.895 48.2961 125.758V125.542C48.2961 125.405 48.3555 125.287 48.4546 125.189C48.5537 125.091 48.732 125.033 48.9697 125.033H49.683V126.287H48.9697ZM45.8194 127.15C45.8194 127.424 45.7401 127.64 45.5816 127.777C45.4231 127.915 45.225 127.993 44.9476 127.993C44.3928 127.993 44.1154 127.777 44.1154 127.366V127.307C44.1154 126.895 44.3928 126.679 44.9674 126.679H45.8194V127.15ZM46.8695 128.228C46.8695 128.111 46.8299 128.032 46.7308 127.993C46.6516 127.954 46.5921 127.895 46.5525 127.817C46.5129 127.758 46.4931 127.64 46.4931 127.503V126.013C46.4931 125.464 46.394 125.052 46.176 124.797C45.9581 124.542 45.5816 124.405 45.0269 124.405C44.5315 124.405 44.1353 124.503 43.838 124.68C43.739 124.739 43.6795 124.837 43.6795 124.935C43.6795 125.013 43.6993 125.091 43.7588 125.15C43.8182 125.209 43.8777 125.229 43.9767 125.229C44.0362 125.229 44.0956 125.209 44.1551 125.189C44.3928 125.052 44.6702 124.993 44.9674 124.993C45.2844 124.993 45.5024 125.072 45.6213 125.209C45.7401 125.366 45.7996 125.601 45.7996 125.934V126.131H44.8882C44.3928 126.131 44.0164 126.229 43.7786 126.444C43.521 126.66 43.4021 126.934 43.4021 127.268V127.326C43.4021 127.679 43.521 127.954 43.7588 128.169C43.9966 128.385 44.3532 128.483 44.8089 128.483C45.3241 128.483 45.7005 128.346 45.9383 128.071C45.9779 128.169 46.0373 128.248 46.0968 128.307C46.2157 128.424 46.3544 128.483 46.5129 128.483C46.7704 128.522 46.8695 128.424 46.8695 128.228ZM42.5502 124.758C42.5502 124.66 42.5105 124.582 42.4511 124.503C42.3718 124.425 42.2926 124.405 42.1935 124.405C42.0945 124.405 42.0152 124.444 41.9359 124.503C41.8567 124.562 41.8369 124.66 41.8369 124.758V126.072H40.232V124.758C40.232 124.66 40.1924 124.582 40.1329 124.503C40.0735 124.425 39.9942 124.405 39.8952 124.405C39.7961 124.405 39.7168 124.444 39.6376 124.503C39.5583 124.562 39.5385 124.66 39.5385 124.758V128.189C39.5385 128.287 39.5781 128.366 39.6376 128.424C39.7168 128.483 39.7961 128.522 39.8952 128.522C39.9942 128.522 40.0735 128.483 40.1329 128.424C40.1924 128.366 40.232 128.287 40.232 128.189V126.679H41.8369V128.189C41.8369 128.287 41.8765 128.366 41.9359 128.424C42.0152 128.483 42.0945 128.522 42.1935 128.522C42.2926 128.522 42.3718 128.483 42.4511 128.424C42.5304 128.366 42.5502 128.287 42.5502 128.189V124.758ZM35.6352 128.13C35.6352 128.228 35.6749 128.307 35.7343 128.366C35.7938 128.424 35.873 128.464 35.9721 128.464H37.2005C37.6562 128.464 37.9931 128.366 38.211 128.169C38.429 127.973 38.528 127.699 38.528 127.366V127.15C38.528 126.817 38.4091 126.542 38.1516 126.346C37.9138 126.15 37.5373 126.052 37.0618 126.052H36.3287V124.778C36.3287 124.68 36.2891 124.601 36.2297 124.523C36.1702 124.464 36.091 124.425 35.9919 124.425C35.8928 124.425 35.8136 124.464 35.7343 124.523C35.6749 124.582 35.6352 124.66 35.6352 124.778V128.13ZM36.3287 126.699H37.1213C37.5968 126.699 37.8345 126.856 37.8345 127.189V127.326C37.8345 127.503 37.7949 127.621 37.6959 127.719C37.5968 127.817 37.4383 127.856 37.2005 127.856H36.3287V126.699ZM31.8905 124.444C31.7914 124.444 31.7122 124.484 31.6527 124.542C31.5933 124.601 31.5537 124.68 31.5537 124.778V125.719C31.5537 126.562 31.4942 127.15 31.3555 127.483C31.3159 127.621 31.2366 127.758 31.1376 127.895C31.0385 128.032 30.9791 128.15 30.9791 128.228C30.9791 128.326 31.0187 128.405 31.0781 128.464C31.1376 128.522 31.2168 128.562 31.3159 128.562C31.514 128.562 31.6924 128.405 31.8707 128.071C32.1084 127.581 32.2471 126.836 32.2471 125.856V125.091H33.7728V128.228C33.7728 128.326 33.8124 128.405 33.8718 128.464C33.9313 128.522 34.0105 128.562 34.1294 128.562C34.2285 128.562 34.3276 128.522 34.387 128.464C34.4464 128.405 34.4861 128.326 34.4861 128.228V124.797C34.4861 124.699 34.4464 124.621 34.387 124.562C34.3276 124.503 34.2483 124.464 34.1492 124.464H31.8905V124.444ZM29.4534 127.15C29.4534 127.424 29.3742 127.64 29.2157 127.777C29.0572 127.915 28.859 127.993 28.5816 127.993C28.0269 127.993 27.7495 127.777 27.7495 127.366V127.307C27.7495 126.895 28.0269 126.679 28.6014 126.679H29.4534V127.15ZM30.5234 128.228C30.5234 128.111 30.4837 128.032 30.3847 127.993C30.3054 127.954 30.246 127.895 30.2063 127.817C30.1667 127.758 30.1469 127.64 30.1469 127.503V126.013C30.1469 125.464 30.0478 125.052 29.8299 124.797C29.6119 124.542 29.2355 124.405 28.6807 124.405C28.1854 124.405 27.7891 124.503 27.4919 124.68C27.3928 124.739 27.3334 124.837 27.3334 124.935C27.3334 125.013 27.3532 125.091 27.4126 125.15C27.4721 125.209 27.5513 125.229 27.6306 125.229C27.69 125.229 27.7495 125.209 27.7891 125.189C28.0269 125.052 28.3042 124.993 28.6014 124.993C28.9185 124.993 29.1364 125.072 29.2553 125.209C29.3742 125.366 29.4336 125.601 29.4336 125.934V126.131H28.5222C28.0269 126.131 27.6504 126.229 27.4126 126.444C27.1551 126.66 27.0362 126.934 27.0362 127.268V127.326C27.0362 127.679 27.1551 127.954 27.3928 128.169C27.6306 128.385 27.9872 128.483 28.4429 128.483C28.9581 128.483 29.3345 128.346 29.5723 128.071C29.6119 128.169 29.6714 128.248 29.7308 128.307C29.8497 128.424 29.9884 128.483 30.1469 128.483C30.4045 128.522 30.5234 128.424 30.5234 128.228ZM26.204 124.758C26.204 124.66 26.1644 124.582 26.1049 124.503C26.0257 124.425 25.9464 124.405 25.8474 124.405C25.7483 124.405 25.669 124.444 25.5898 124.503C25.5105 124.562 25.4907 124.66 25.4907 124.758V126.072H23.8858V124.758C23.8858 124.66 23.8462 124.582 23.7868 124.503C23.7273 124.425 23.6283 124.405 23.549 124.405C23.4499 124.405 23.3707 124.444 23.2914 124.503C23.2122 124.562 23.1924 124.66 23.1924 124.758V128.189C23.1924 128.287 23.232 128.366 23.2914 128.424C23.3707 128.483 23.4499 128.522 23.549 128.522C23.6481 128.522 23.7273 128.483 23.7868 128.424C23.8462 128.366 23.8858 128.287 23.8858 128.189V126.679H25.4907V128.189C25.4907 128.287 25.5304 128.366 25.5898 128.424C25.669 128.483 25.7483 128.522 25.8474 128.522C25.9464 128.522 26.0257 128.483 26.1049 128.424C26.1842 128.366 26.204 128.287 26.204 128.189V124.758ZM21.4686 126.876C21.4686 127.542 21.1714 127.895 20.5572 127.895C19.9429 127.895 19.6457 127.562 19.6457 126.876V126.072C19.6457 125.405 19.9429 125.052 20.5572 125.052C21.1714 125.052 21.4686 125.386 21.4686 126.072V126.876ZM22.1621 126.876V126.052C22.1621 125.562 22.0234 125.17 21.7658 124.856C21.5082 124.542 21.0921 124.405 20.5572 124.405C20.0222 124.405 19.6061 124.562 19.3485 124.856C19.0711 125.17 18.9522 125.562 18.9522 126.052V126.876C18.9522 127.366 19.0909 127.758 19.3485 128.071C19.6259 128.385 20.0222 128.522 20.5572 128.522C21.1119 128.522 21.5082 128.366 21.7658 128.071C22.0432 127.758 22.1621 127.366 22.1621 126.876ZM15.3858 127.934L17.2284 125.934V128.189C17.2284 128.287 17.2681 128.366 17.3275 128.444C17.3869 128.503 17.486 128.542 17.5851 128.542C17.6841 128.542 17.7634 128.503 17.8426 128.444C17.9021 128.366 17.9417 128.287 17.9417 128.189V124.758C17.9417 124.66 17.9021 124.582 17.8426 124.523C17.7832 124.464 17.704 124.425 17.5851 124.425C17.486 124.425 17.4067 124.464 17.3275 124.523C17.2482 124.582 17.2284 124.66 17.2284 124.758V125.013L15.3858 127.013V124.739C15.3858 124.641 15.3461 124.562 15.2867 124.503C15.2273 124.444 15.1282 124.405 15.0291 124.405C14.9301 124.405 14.8508 124.444 14.7716 124.503C14.7121 124.562 14.6725 124.641 14.6725 124.739V128.169C14.6725 128.267 14.7121 128.346 14.7716 128.424C14.831 128.483 14.9301 128.522 15.0291 128.522C15.1282 128.522 15.2074 128.483 15.2867 128.424C15.3461 128.346 15.3858 128.267 15.3858 128.169V127.934ZM13.3648 129.444C13.3648 129.542 13.4044 129.601 13.4639 129.679C13.5233 129.738 13.6026 129.777 13.7016 129.777C13.7809 129.777 13.8601 129.738 13.9196 129.679C13.979 129.62 14.0186 129.542 14.0186 129.463V128.15C14.0186 128.071 13.9988 127.993 13.9394 127.934C13.8799 127.875 13.8007 127.856 13.7214 127.856H13.3252V124.758C13.3252 124.66 13.2855 124.582 13.2261 124.523C13.1667 124.464 13.0676 124.425 12.9685 124.425C12.8695 124.425 12.7902 124.464 12.7109 124.523C12.6515 124.582 12.6119 124.66 12.6119 124.758V127.856H10.9079V124.758C10.9079 124.66 10.8683 124.582 10.8088 124.523C10.7494 124.464 10.6702 124.425 10.5513 124.425C10.4522 124.425 10.373 124.464 10.2937 124.523C10.2144 124.582 10.1946 124.66 10.1946 124.758V128.15C10.1946 128.228 10.2343 128.307 10.2937 128.366C10.3531 128.424 10.4324 128.464 10.5315 128.464H13.3846V129.444H13.3648ZM8.2529 127.15C8.2529 127.424 8.17365 127.64 8.01514 127.777C7.85663 127.915 7.6585 127.993 7.38111 127.993C6.82633 127.993 6.54894 127.777 6.54894 127.366V127.307C6.54894 126.895 6.82633 126.679 7.40092 126.679H8.2529V127.15ZM9.30302 128.228C9.30302 128.111 9.26339 128.032 9.16433 127.993C9.08507 127.954 9.02563 127.895 8.986 127.817C8.94638 127.758 8.92656 127.64 8.92656 127.503V126.013C8.92656 125.464 8.8275 125.052 8.60955 124.797C8.3916 124.542 8.01514 124.405 7.46036 124.405C6.96503 124.405 6.56875 124.503 6.27155 124.68C6.17248 124.739 6.11304 124.837 6.11304 124.935C6.11304 125.013 6.13286 125.091 6.1923 125.15C6.25174 125.209 6.31118 125.229 6.41025 125.229C6.46969 125.229 6.52913 125.209 6.58857 125.189C6.82633 125.052 7.10372 124.993 7.40092 124.993C7.71794 124.993 7.93589 125.072 8.05477 125.209C8.17365 125.366 8.23309 125.601 8.23309 125.934V126.131H7.32167C6.82633 126.131 6.44987 126.229 6.21211 126.444C5.95454 126.66 5.83565 126.934 5.83565 127.268V127.326C5.83565 127.679 5.95454 127.954 6.1923 128.169C6.43006 128.385 6.7867 128.483 7.24241 128.483C7.75757 128.483 8.13402 128.346 8.37179 128.071C8.41141 128.169 8.47085 128.248 8.53029 128.307C8.64917 128.424 8.78787 128.483 8.94638 128.483C9.18414 128.522 9.30302 128.424 9.30302 128.228ZM4.15151 125.287H1.49649V122.954C1.49649 122.856 1.45686 122.778 1.39742 122.7C1.31816 122.621 1.23891 122.602 1.13984 122.602C1.04078 122.602 0.961525 122.641 0.882271 122.7C0.803017 122.778 0.783203 122.856 0.783203 122.954V128.189C0.783203 128.287 0.82283 128.366 0.882271 128.444C0.961525 128.503 1.04078 128.542 1.13984 128.542C1.23891 128.542 1.31816 128.503 1.39742 128.444C1.47667 128.366 1.49649 128.287 1.49649 128.189V125.954H4.15151V128.189C4.15151 128.287 4.19113 128.366 4.27039 128.444C4.34964 128.503 4.42889 128.542 4.52796 128.542C4.62703 128.542 4.70628 128.503 4.78554 128.444C4.86479 128.366 4.88461 128.287 4.88461 128.189V122.954C4.88461 122.856 4.84498 122.778 4.78554 122.7C4.70628 122.621 4.62703 122.602 4.52796 122.602C4.42889 122.602 4.32983 122.641 4.27039 122.7C4.19113 122.778 4.15151 122.856 4.15151 122.954V125.287Z" fill="#0B1E21"/>
<path d="M57.6282 134.345C57.6282 134.247 57.5886 134.169 57.5292 134.09C57.4697 134.012 57.3707 133.992 57.2716 133.992H56.2017C55.746 133.992 55.4091 134.09 55.1912 134.306C54.9732 134.502 54.8742 134.757 54.8742 135.071V135.286C54.8742 135.541 54.9336 135.757 55.0723 135.933C55.1912 136.11 55.3893 136.247 55.6271 136.306C55.3893 136.678 55.1516 137.09 54.9138 137.502C54.8543 137.6 54.8345 137.678 54.8345 137.756C54.8345 137.855 54.8742 137.913 54.9336 137.972C54.993 138.031 55.0723 138.051 55.1714 138.051C55.3299 138.051 55.4488 137.992 55.5082 137.855C55.845 137.168 56.1224 136.678 56.3205 136.365H56.9348V137.717C56.9348 137.815 56.9744 137.894 57.0338 137.953C57.0933 138.011 57.1923 138.051 57.2716 138.051C57.3707 138.051 57.4697 138.011 57.5292 137.953C57.5886 137.894 57.6282 137.815 57.6282 137.717V134.345ZM56.2215 135.855C55.9837 135.855 55.8054 135.796 55.7063 135.698C55.6073 135.6 55.5478 135.463 55.5478 135.325V135.11C55.5478 134.973 55.6073 134.855 55.7063 134.757C55.8054 134.659 55.9837 134.6 56.2215 134.6H56.9348V135.855H56.2215ZM53.0711 136.698C53.0711 136.972 52.9919 137.188 52.8334 137.325C52.6749 137.462 52.4767 137.541 52.1993 137.541C51.6446 137.541 51.3672 137.325 51.3672 136.913V136.855C51.3672 136.443 51.6446 136.227 52.2191 136.227H53.0711V136.698ZM54.1212 137.776C54.1212 137.658 54.0816 137.58 53.9825 137.541C53.9033 137.502 53.8439 137.443 53.8042 137.364C53.7646 137.306 53.7448 137.188 53.7448 137.051V135.561C53.7448 135.012 53.6457 134.6 53.4278 134.345C53.2098 134.09 52.8334 133.973 52.2786 133.973C51.7833 133.973 51.387 134.071 51.0898 134.247C50.9907 134.306 50.9313 134.404 50.9313 134.502C50.9313 134.58 50.9511 134.659 51.0105 134.718C51.07 134.776 51.1492 134.796 51.2285 134.796C51.2879 134.796 51.3474 134.776 51.387 134.757C51.6247 134.62 51.9021 134.561 52.1993 134.561C52.5163 134.561 52.7343 134.639 52.8532 134.776C52.9721 134.933 53.0315 135.169 53.0315 135.502V135.698H52.1597C51.6644 135.698 51.2879 135.796 51.0502 136.012C50.7926 136.227 50.6737 136.502 50.6737 136.835V136.894C50.6737 137.247 50.7926 137.521 51.0303 137.737C51.2681 137.953 51.6247 138.051 52.0805 138.051C52.5956 138.051 52.9721 137.913 53.2098 137.639C53.2495 137.737 53.3089 137.815 53.3683 137.874C53.4872 137.992 53.6259 138.051 53.7844 138.051C54.0024 138.07 54.1212 137.972 54.1212 137.776ZM48.0187 134.326C48.0187 134.228 47.9791 134.149 47.9196 134.09C47.8404 134.031 47.7611 133.992 47.662 133.992C47.563 133.992 47.4837 134.031 47.4243 134.09C47.3648 134.149 47.3252 134.247 47.3252 134.326V137.756C47.3252 137.855 47.3648 137.933 47.4243 138.011C47.4837 138.07 47.563 138.109 47.662 138.109C47.7611 138.109 47.8404 138.07 47.9196 138.011C47.9989 137.933 48.0187 137.855 48.0187 137.756V136.365H48.4546C48.831 136.835 49.2075 137.364 49.6038 137.933C49.683 138.07 49.7821 138.129 49.9208 138.129C50.0198 138.129 50.0991 138.09 50.1784 138.031C50.2378 137.972 50.2774 137.894 50.2774 137.796C50.2774 137.717 50.2576 137.658 50.218 137.6C49.9208 137.149 49.5443 136.639 49.0688 136.051L50.1982 134.541C50.2378 134.482 50.2774 134.404 50.2774 134.326C50.2774 134.228 50.2378 134.149 50.1784 134.09C50.1189 134.031 50.0397 133.992 49.9208 133.992C49.7821 133.992 49.683 134.051 49.6038 134.188L48.4546 135.737H48.0385V134.326H48.0187ZM46.4732 134.58C46.5525 134.424 46.5129 134.286 46.3345 134.188C46.077 134.031 45.7401 133.953 45.324 133.953C44.8089 133.953 44.4126 134.13 44.155 134.463C43.8777 134.796 43.739 135.227 43.739 135.737V136.286C43.739 136.815 43.8777 137.247 44.1352 137.58C44.3928 137.894 44.7891 138.07 45.3439 138.07C45.7401 138.07 46.0571 137.992 46.3543 137.835C46.4336 137.796 46.4732 137.737 46.493 137.678C46.5327 137.6 46.5129 137.541 46.493 137.443C46.4534 137.364 46.4138 137.325 46.3345 137.286C46.2553 137.266 46.1958 137.266 46.0968 137.286C45.8788 137.404 45.6411 137.462 45.3637 137.462C45.0665 137.462 44.8287 137.364 44.6702 137.168C44.5117 136.972 44.4324 136.698 44.4324 136.325V135.678C44.4324 135.325 44.5117 135.051 44.69 134.855C44.8485 134.639 45.0863 134.541 45.3835 134.541C45.6609 134.541 45.8788 134.6 46.077 134.698C46.1562 134.737 46.2355 134.737 46.2949 134.718C46.394 134.698 46.4336 134.659 46.4732 134.58ZM42.2529 135.678H40.4697V135.541C40.4697 134.855 40.7669 134.522 41.3613 134.522C41.9557 134.522 42.2529 134.855 42.2529 135.541V135.678ZM42.9464 135.953V135.62C42.9464 135.129 42.8275 134.718 42.57 134.404C42.3124 134.09 41.9161 133.933 41.3613 133.933C40.8264 133.933 40.4301 134.09 40.1725 134.404C39.915 134.718 39.7763 135.129 39.7763 135.62V136.365C39.7763 136.855 39.915 137.266 40.1725 137.58C40.4301 137.894 40.8264 138.051 41.3613 138.051C41.8369 138.051 42.2728 137.953 42.6294 137.756C42.7879 137.678 42.8275 137.541 42.7681 137.384C42.7483 137.306 42.6888 137.247 42.6294 137.227C42.5501 137.208 42.4907 137.208 42.4115 137.227C42.1341 137.384 41.7972 137.443 41.401 137.443C40.7867 137.443 40.4895 137.09 40.4895 136.404V136.188H42.6888C42.7681 136.188 42.8275 136.168 42.887 136.11C42.9266 136.11 42.9464 136.031 42.9464 135.953ZM38.7658 134.326C38.7658 134.228 38.7261 134.149 38.6667 134.09C38.5874 134.031 38.5082 133.992 38.4091 133.992C38.3101 133.992 38.2308 134.031 38.1515 134.09C38.0723 134.149 38.0525 134.247 38.0525 134.326V135.874C37.7751 135.972 37.4977 136.012 37.2401 136.012C36.7448 136.012 36.4872 135.757 36.4872 135.267V134.326C36.4872 134.228 36.4476 134.149 36.3881 134.09C36.3287 134.031 36.2296 133.992 36.1306 133.992C36.0315 133.992 35.9522 134.031 35.873 134.09C35.7937 134.149 35.7739 134.247 35.7739 134.326V135.345C35.7739 135.776 35.8928 136.09 36.1108 136.306C36.3287 136.521 36.6655 136.619 37.0816 136.619C37.3788 136.619 37.6958 136.561 38.0327 136.463V137.737C38.0327 137.835 38.0723 137.913 38.1317 137.992C38.1912 138.07 38.2902 138.09 38.3893 138.09C38.4884 138.09 38.5676 138.051 38.6469 137.992C38.7261 137.913 38.746 137.835 38.746 137.737V134.326H38.7658ZM32.1282 137.482L33.9709 135.482V137.737C33.9709 137.835 34.0105 137.913 34.07 137.992C34.1294 138.07 34.2285 138.09 34.3275 138.09C34.4266 138.09 34.5059 138.051 34.5851 137.992C34.6446 137.913 34.6842 137.835 34.6842 137.737V134.306C34.6842 134.208 34.6446 134.13 34.5851 134.071C34.5257 134.012 34.4464 133.973 34.3275 133.973C34.2285 133.973 34.1492 134.012 34.07 134.071C34.0105 134.13 33.9709 134.228 33.9709 134.306V134.561L32.1282 136.561V134.286C32.1282 134.188 32.0886 134.11 32.0292 134.051C31.9697 133.992 31.8707 133.953 31.7716 133.953C31.6725 133.953 31.5735 133.992 31.514 134.051C31.4348 134.11 31.4149 134.208 31.4149 134.286V137.717C31.4149 137.815 31.4546 137.894 31.514 137.972C31.5735 138.051 31.6725 138.07 31.7716 138.07C31.8707 138.07 31.9499 138.031 32.0292 137.972C32.0886 137.894 32.1282 137.815 32.1282 137.717V137.482ZM30.7809 134.306C30.7809 134.228 30.7413 134.149 30.6819 134.09C30.6224 134.031 30.5432 133.992 30.4639 133.992H28.4231C28.324 133.992 28.2448 134.031 28.1853 134.09C28.1259 134.169 28.0863 134.247 28.0863 134.326V137.737C28.0863 137.835 28.1259 137.913 28.1853 137.972C28.2448 138.031 28.324 138.07 28.4231 138.07C28.5222 138.07 28.6014 138.031 28.6807 137.972C28.7599 137.913 28.7798 137.835 28.7798 137.737V134.6H30.4639C30.5432 134.6 30.6224 134.561 30.6819 134.502C30.7413 134.463 30.7809 134.384 30.7809 134.306ZM26.3625 136.423C26.3625 137.09 26.0653 137.443 25.4511 137.443C25.3124 137.443 25.1737 137.423 25.0746 137.384L26.1644 134.973C26.3031 135.11 26.3823 135.325 26.3823 135.62V136.423H26.3625ZM25.8474 134.659L24.7576 137.07C24.6189 136.933 24.5397 136.717 24.5397 136.423V135.62C24.5397 134.953 24.8369 134.6 25.4511 134.6C25.6096 134.6 25.7285 134.62 25.8474 134.659ZM27.056 136.423V135.6C27.056 134.973 26.8578 134.522 26.4616 134.247L26.6003 133.933C26.6399 133.816 26.6201 133.718 26.5012 133.659C26.3625 133.62 26.2832 133.639 26.2238 133.757L26.0851 134.051C25.887 133.973 25.669 133.953 25.4313 133.953C24.8963 133.953 24.4802 134.11 24.2226 134.404C23.9453 134.718 23.8264 135.11 23.8264 135.6V136.423C23.8264 137.051 24.0245 137.502 24.4208 137.776L24.2821 138.09C24.2623 138.129 24.2623 138.188 24.2821 138.247C24.3019 138.305 24.3415 138.345 24.3812 138.364C24.5 138.423 24.5793 138.384 24.6387 138.266L24.7774 137.972C24.9756 138.051 25.1935 138.07 25.4313 138.07C25.986 138.07 26.3823 137.913 26.6399 137.619C26.9371 137.306 27.056 136.913 27.056 136.423ZM20.2203 133.992C20.1212 133.992 20.042 134.031 19.9825 134.09C19.9231 134.149 19.8835 134.228 19.8835 134.326V135.267C19.8835 136.11 19.824 136.698 19.6853 137.031C19.6456 137.168 19.5664 137.306 19.4673 137.443C19.3682 137.58 19.3088 137.698 19.3088 137.776C19.3088 137.874 19.3484 137.953 19.4079 138.011C19.4673 138.07 19.5664 138.109 19.6456 138.109C19.8439 138.109 20.0222 137.953 20.2005 137.619C20.4383 137.129 20.577 136.384 20.577 135.404V134.639H22.1026V137.776C22.1026 137.874 22.1422 137.953 22.2017 138.011C22.2611 138.07 22.3404 138.109 22.4592 138.109C22.5583 138.109 22.6574 138.07 22.7168 138.011C22.7763 137.953 22.8159 137.855 22.8159 137.776V134.345C22.8159 134.247 22.7763 134.169 22.7168 134.11C22.6574 134.051 22.5781 134.012 22.4791 134.012H20.2203V133.992ZM18.0209 136.423C18.0209 137.09 17.7237 137.443 17.1095 137.443C16.4953 137.443 16.1981 137.11 16.1981 136.423V135.62C16.1981 134.953 16.4953 134.6 17.1095 134.6C17.7237 134.6 18.0209 134.933 18.0209 135.62V136.423ZM18.7144 136.423V135.6C18.7144 135.11 18.5757 134.718 18.3181 134.404C18.0606 134.09 17.6445 133.953 17.1095 133.953C16.5745 133.953 16.1585 134.11 15.9009 134.404C15.6235 134.718 15.5046 135.11 15.5046 135.6V136.423C15.5046 136.913 15.6433 137.306 15.9009 137.619C16.1783 137.933 16.5745 138.07 17.1095 138.07C17.6643 138.07 18.0606 137.913 18.3181 137.619C18.5757 137.306 18.7144 136.913 18.7144 136.423ZM14.4743 134.326C14.4743 134.228 14.4347 134.149 14.3752 134.071C14.296 134.012 14.2167 133.973 14.1177 133.973C14.0186 133.973 13.9393 134.012 13.8601 134.071C13.7808 134.149 13.761 134.228 13.761 134.326V135.639H12.1561V134.326C12.1561 134.228 12.1165 134.149 12.0571 134.071C11.9976 134.012 11.9184 133.973 11.8193 133.973C11.7202 133.973 11.641 134.012 11.5617 134.071C11.4825 134.149 11.4627 134.228 11.4627 134.326V137.756C11.4627 137.855 11.5023 137.933 11.5617 137.992C11.641 138.051 11.7202 138.09 11.8193 138.09C11.9184 138.09 11.9976 138.051 12.0571 137.992C12.1165 137.933 12.1561 137.835 12.1561 137.756V136.247H13.761V137.756C13.761 137.855 13.8007 137.933 13.8601 137.992C13.9393 138.051 14.0186 138.09 14.1177 138.09C14.2167 138.09 14.296 138.051 14.3752 137.992C14.4545 137.933 14.4743 137.835 14.4743 137.756V134.326ZM10.7296 137.737C10.7296 137.678 10.7097 137.619 10.6899 137.58C10.472 137.188 10.0955 136.639 9.56056 135.953C10.0361 135.325 10.3729 134.816 10.571 134.424C10.5909 134.365 10.6107 134.306 10.6107 134.267C10.6107 134.169 10.571 134.11 10.5116 134.051C10.4324 133.992 10.3531 133.973 10.2738 133.973C10.1351 133.973 10.0559 134.031 9.97664 134.149C9.79832 134.502 9.52093 134.914 9.14447 135.404C8.78783 134.933 8.51044 134.502 8.35193 134.149C8.27268 134.012 8.17361 133.953 8.03492 133.953C7.93585 133.953 7.85659 133.992 7.77734 134.051C7.69809 134.11 7.65846 134.188 7.65846 134.286C7.65846 134.345 7.67827 134.404 7.69809 134.443C7.91604 134.855 8.25286 135.365 8.72839 135.953C8.21324 136.6 7.83678 137.149 7.59902 137.58C7.57921 137.619 7.55939 137.678 7.55939 137.737C7.55939 137.835 7.59902 137.894 7.65846 137.972C7.73771 138.031 7.81697 138.07 7.89622 138.07C8.03492 138.07 8.13398 138.011 8.19342 137.894C8.37175 137.541 8.68876 137.07 9.12466 136.502C9.58037 137.129 9.89739 137.58 10.0559 137.874C10.1153 138.011 10.2342 138.07 10.3729 138.07C10.472 138.07 10.5512 138.031 10.6305 137.972C10.6899 137.913 10.7296 137.835 10.7296 137.737ZM6.33095 135.678H4.54774V135.541C4.54774 134.855 4.84494 134.522 5.43934 134.522C6.03375 134.522 6.33095 134.855 6.33095 135.541V135.678ZM7.02443 135.953V135.62C7.02443 135.129 6.90554 134.718 6.64797 134.404C6.39039 134.09 5.99412 133.933 5.43934 133.933C4.90438 133.933 4.50811 134.09 4.25053 134.404C3.99296 134.718 3.85426 135.129 3.85426 135.62V136.365C3.85426 136.855 3.99296 137.266 4.23072 137.58C4.4883 137.894 4.88457 138.051 5.43934 138.051C5.91487 138.051 6.35077 137.953 6.70741 137.756C6.86592 137.678 6.90554 137.541 6.8461 137.384C6.82629 137.306 6.76685 137.247 6.70741 137.227C6.62816 137.208 6.56872 137.208 6.48946 137.227C6.21207 137.384 5.87524 137.443 5.47897 137.443C4.86475 137.443 4.56755 137.09 4.56755 136.404V136.188H6.76685C6.8461 136.188 6.90555 136.168 6.96499 136.11C7.00461 136.11 7.02443 136.031 7.02443 135.953ZM0.466149 133.992C0.386895 133.992 0.307639 134.031 0.248198 134.09C0.188758 134.149 0.168945 134.228 0.168945 134.306C0.168945 134.384 0.188758 134.463 0.248198 134.522C0.307639 134.58 0.367081 134.6 0.466149 134.6H1.41719V137.756C1.41719 137.855 1.45682 137.933 1.51626 137.992C1.5757 138.051 1.65496 138.09 1.75403 138.09C1.8531 138.09 1.93235 138.051 2.01161 137.992C2.09086 137.933 2.13049 137.835 2.13049 137.756V134.6H3.08154C3.16079 134.6 3.24004 134.58 3.29948 134.522C3.35893 134.463 3.37874 134.384 3.37874 134.306C3.37874 134.228 3.35893 134.149 3.29948 134.09C3.24004 134.031 3.1806 133.992 3.08154 133.992H0.466149Z" fill="#0B1E21"/>
<path d="M40.3303 146.247C40.3303 146.521 40.251 146.737 40.0925 146.874C39.934 147.011 39.7358 147.09 39.4585 147.09C38.9037 147.09 38.6263 146.874 38.6263 146.462V146.404C38.6263 145.992 38.9037 145.776 39.4783 145.776H40.3303V146.247ZM41.4002 147.325C41.4002 147.207 41.3606 147.129 41.2615 147.09C41.1822 147.051 41.1228 146.992 41.0832 146.913C41.0435 146.854 41.0237 146.737 41.0237 146.6V145.11C41.0237 144.561 40.9048 144.149 40.7067 143.894C40.4888 143.639 40.1123 143.502 39.5575 143.502C39.0622 143.502 38.6659 143.6 38.3687 143.776C38.2696 143.835 38.2102 143.933 38.2102 144.031C38.2102 144.11 38.2498 144.188 38.2895 144.247C38.3489 144.306 38.4282 144.325 38.5074 144.325C38.5668 144.325 38.6263 144.306 38.6857 144.286C38.9235 144.149 39.2009 144.09 39.4981 144.09C39.8151 144.09 40.0331 144.169 40.1519 144.306C40.2708 144.463 40.3303 144.698 40.3303 145.031V145.227H39.4188C38.9235 145.227 38.547 145.325 38.3093 145.541C38.0517 145.757 37.9328 146.031 37.9328 146.364V146.423C37.9328 146.776 38.0517 147.051 38.2895 147.266C38.5272 147.482 38.8839 147.58 39.3396 147.58C39.8547 147.58 40.2312 147.443 40.4689 147.168C40.5086 147.266 40.568 147.345 40.6275 147.403C40.7463 147.521 40.885 147.58 41.0435 147.58C41.2813 147.639 41.4002 147.521 41.4002 147.325ZM35.9118 147.58C36.3477 147.58 36.6846 147.482 36.8827 147.286C37.0808 147.09 37.1997 146.835 37.1997 146.502V146.364C37.1997 145.953 37.0016 145.678 36.6053 145.521C36.9025 145.364 37.0412 145.11 37.0412 144.757V144.639C37.0412 144.325 36.9421 144.071 36.7242 143.874C36.5062 143.678 36.1892 143.58 35.7731 143.58H34.6636C34.5645 143.58 34.4853 143.62 34.406 143.678C34.3268 143.757 34.3069 143.835 34.3069 143.914V147.247C34.3069 147.345 34.3466 147.423 34.406 147.501C34.4655 147.58 34.5645 147.599 34.6636 147.599H35.9118V147.58ZM35.7335 144.149C36.1496 144.149 36.3477 144.325 36.3477 144.659V144.796C36.3477 145.11 36.1298 145.286 35.6741 145.286H35.0202V144.149H35.7335ZM35.8128 145.835C36.0307 145.835 36.209 145.874 36.3279 145.972C36.4468 146.051 36.5062 146.188 36.5062 146.345V146.482C36.5062 146.658 36.4666 146.776 36.3675 146.874C36.2685 146.952 36.11 147.011 35.8722 147.011H35.0202V145.855H35.8128V145.835ZM30.6414 147.031L32.4841 145.031V147.286C32.4841 147.384 32.5237 147.462 32.5832 147.541C32.6426 147.599 32.7417 147.639 32.8407 147.639C32.9398 147.639 33.0191 147.599 33.0983 147.541C33.1578 147.462 33.1974 147.384 33.1974 147.286V143.855C33.1974 143.757 33.1578 143.678 33.0983 143.62C33.0389 143.561 32.9596 143.522 32.8407 143.522C32.7417 143.522 32.6624 143.561 32.5832 143.62C32.5039 143.678 32.4841 143.757 32.4841 143.855V144.11L30.6414 146.109V143.835C30.6414 143.737 30.6018 143.659 30.5424 143.6C30.4829 143.541 30.3839 143.502 30.2848 143.502C30.1857 143.502 30.1065 143.541 30.0272 143.6C29.948 143.659 29.9282 143.737 29.9282 143.835V147.266C29.9282 147.364 29.9678 147.443 30.0272 147.521C30.0867 147.58 30.1857 147.619 30.2848 147.619C30.3839 147.619 30.4631 147.58 30.5424 147.521C30.6018 147.443 30.6414 147.364 30.6414 147.266V147.031ZM26.3815 143.561C26.3023 143.561 26.223 143.6 26.1636 143.659C26.1041 143.718 26.0843 143.796 26.0843 143.874C26.0843 143.953 26.1041 144.031 26.1636 144.09C26.223 144.149 26.2825 144.169 26.3815 144.169H27.3326V147.325C27.3326 147.423 27.3722 147.501 27.4317 147.56C27.4911 147.619 27.5703 147.658 27.6694 147.658C27.7685 147.658 27.8477 147.619 27.927 147.56C28.0062 147.501 28.0261 147.423 28.0261 147.325V144.169H28.9771C29.0564 144.169 29.1356 144.149 29.1951 144.09C29.2545 144.031 29.2743 143.953 29.2743 143.874C29.2743 143.796 29.2347 143.718 29.1951 143.659C29.1356 143.6 29.0564 143.561 28.9771 143.561H26.3815ZM24.6974 146.247C24.6974 146.521 24.6181 146.737 24.4596 146.874C24.3011 147.011 24.103 147.09 23.8256 147.09C23.2708 147.09 22.9934 146.874 22.9934 146.462V146.404C22.9934 145.992 23.2708 145.776 23.8454 145.776H24.6974V146.247ZM25.7475 147.325C25.7475 147.207 25.7079 147.129 25.6088 147.09C25.5296 147.051 25.4701 146.992 25.4305 146.913C25.3909 146.854 25.371 146.737 25.371 146.6V145.11C25.371 144.561 25.272 144.149 25.054 143.894C24.8361 143.639 24.4596 143.502 23.9048 143.502C23.4095 143.502 23.0132 143.6 22.716 143.776C22.617 143.835 22.5575 143.933 22.5575 144.031C22.5575 144.11 22.5773 144.188 22.6368 144.247C22.6962 144.306 22.7755 144.325 22.8547 144.325C22.9142 144.325 22.9736 144.306 23.0132 144.286C23.251 144.149 23.5284 144.09 23.8256 144.09C24.1426 144.09 24.3606 144.169 24.4794 144.306C24.5983 144.463 24.6578 144.698 24.6578 145.031V145.227H23.7463C23.251 145.227 22.8745 145.325 22.6368 145.541C22.3792 145.757 22.2603 146.031 22.2603 146.364V146.423C22.2603 146.776 22.3792 147.051 22.617 147.266C22.8547 147.482 23.2114 147.58 23.6671 147.58C24.1822 147.58 24.5587 147.443 24.7965 147.168C24.8361 147.266 24.8955 147.345 24.955 147.403C25.0738 147.521 25.2125 147.58 25.371 147.58C25.6286 147.639 25.7475 147.521 25.7475 147.325ZM18.8721 147.031L20.7149 145.031V147.286C20.7149 147.384 20.7545 147.462 20.8139 147.541C20.8734 147.599 20.9724 147.639 21.0715 147.639C21.1706 147.639 21.2498 147.599 21.3291 147.541C21.3885 147.462 21.4282 147.384 21.4282 147.286V143.855C21.4282 143.757 21.3885 143.678 21.3291 143.62C21.2696 143.561 21.1904 143.522 21.0715 143.522C20.9724 143.522 20.8932 143.561 20.8139 143.62C20.7347 143.678 20.7149 143.757 20.7149 143.855V144.11L18.8721 146.109V143.835C18.8721 143.737 18.8325 143.659 18.773 143.6C18.7136 143.541 18.6146 143.502 18.5155 143.502C18.4164 143.502 18.3371 143.541 18.2579 143.6C18.1786 143.659 18.1588 143.737 18.1588 143.835V147.266C18.1588 147.364 18.1985 147.443 18.2579 147.521C18.3173 147.58 18.4164 147.619 18.5155 147.619C18.6146 147.619 18.6938 147.58 18.773 147.521C18.8325 147.443 18.8721 147.364 18.8721 147.266V147.031ZM16.8511 148.56C16.8511 148.658 16.8908 148.717 16.9502 148.795C17.0096 148.854 17.0889 148.893 17.188 148.893C17.2672 148.893 17.3465 148.854 17.4059 148.795C17.4654 148.737 17.505 148.658 17.505 148.58V147.266C17.505 147.188 17.4852 147.109 17.4257 147.051C17.3663 146.992 17.2871 146.972 17.2078 146.972H16.8115V143.874C16.8115 143.776 16.7719 143.698 16.7125 143.639C16.653 143.58 16.5539 143.541 16.4549 143.541C16.3558 143.541 16.2766 143.58 16.1973 143.639C16.1378 143.698 16.0982 143.776 16.0982 143.874V146.972H14.3943V143.874C14.3943 143.776 14.3546 143.698 14.2952 143.639C14.2358 143.58 14.1565 143.541 14.0376 143.541C13.9386 143.541 13.8593 143.58 13.78 143.639C13.7008 143.698 13.681 143.776 13.681 143.874V147.266C13.681 147.345 13.7206 147.423 13.78 147.482C13.8395 147.541 13.9187 147.58 14.0178 147.58H16.8709V148.56H16.8511ZM9.97586 147.031L11.8185 145.031V147.286C11.8185 147.384 11.8581 147.462 11.9176 147.541C11.977 147.599 12.0761 147.639 12.1752 147.639C12.2742 147.639 12.3535 147.599 12.4327 147.541C12.4922 147.462 12.5318 147.384 12.5318 147.286V143.855C12.5318 143.757 12.4922 143.678 12.4327 143.62C12.3733 143.561 12.294 143.522 12.1752 143.522C12.0761 143.522 11.9968 143.561 11.9176 143.62C11.8383 143.678 11.8185 143.757 11.8185 143.855V144.11L9.97586 146.109V143.835C9.97586 143.737 9.93624 143.659 9.8768 143.6C9.81736 143.541 9.71827 143.502 9.6192 143.502C9.52013 143.502 9.4409 143.541 9.36162 143.6C9.28237 143.659 9.26256 143.737 9.26256 143.835V147.266C9.26256 147.364 9.3022 147.443 9.36162 147.521C9.42107 147.58 9.52013 147.619 9.6192 147.619C9.71827 147.619 9.79754 147.58 9.8768 147.521C9.93624 147.443 9.97586 147.364 9.97586 147.266V147.031ZM8.11339 143.874C8.11339 143.776 8.07377 143.698 8.01432 143.62C7.93507 143.541 7.8558 143.522 7.75673 143.522C7.65766 143.522 7.57843 143.561 7.49917 143.62C7.41992 143.698 7.40011 143.776 7.40011 143.874V145.188H5.79519V143.874C5.79519 143.776 5.75556 143.698 5.69612 143.62C5.6367 143.541 5.55743 143.522 5.45836 143.522C5.35929 143.522 5.28004 143.561 5.20079 143.62C5.12153 143.698 5.10172 143.776 5.10172 143.874V147.305C5.10172 147.403 5.14136 147.482 5.20079 147.541C5.28004 147.599 5.35929 147.639 5.45836 147.639C5.55743 147.639 5.6367 147.599 5.69612 147.541C5.75556 147.482 5.79519 147.403 5.79519 147.305V145.796H7.40011V147.305C7.40011 147.403 7.43973 147.482 7.49917 147.541C7.57843 147.599 7.65766 147.639 7.75673 147.639C7.8558 147.639 7.93507 147.599 8.01432 147.541C8.09358 147.482 8.11339 147.403 8.11339 147.305V143.874ZM1.41641 147.031L3.25908 145.031V147.286C3.25908 147.384 3.29871 147.462 3.35815 147.541C3.41759 147.599 3.51664 147.639 3.6157 147.639C3.71477 147.639 3.79403 147.599 3.87328 147.541C3.93272 147.462 3.97235 147.384 3.97235 147.286V143.855C3.97235 143.757 3.93272 143.678 3.87328 143.62C3.81384 143.561 3.73459 143.522 3.6157 143.522C3.51664 143.522 3.4374 143.561 3.35815 143.62C3.27889 143.678 3.25908 143.757 3.25908 143.855V144.11L1.41641 146.109V143.835C1.41641 143.737 1.37678 143.659 1.31734 143.6C1.2579 143.541 1.15884 143.502 1.05977 143.502C0.960705 143.502 0.881447 143.541 0.802193 143.6C0.742752 143.659 0.703125 143.737 0.703125 143.835V147.266C0.703125 147.364 0.742752 147.443 0.802193 147.521C0.861633 147.58 0.960705 147.619 1.05977 147.619C1.15884 147.619 1.23809 147.58 1.31734 147.521C1.37678 147.443 1.41641 147.364 1.41641 147.266V147.031Z" fill="#0B1E21"/>
<path d="M7.61866 101.546C7.61866 103.056 7.36108 104.33 6.60817 105.154C5.95432 105.938 4.94383 106.369 3.47763 106.369C2.60584 106.369 1.57553 106.114 0.981124 105.722C0.56504 105.467 0.386719 105.134 0.386719 104.879C0.386719 104.566 0.624477 104.272 1.00093 104.272C1.27832 104.272 1.45665 104.448 1.81329 104.664C2.18975 104.899 2.7049 105.115 3.55689 105.115C4.38905 105.115 5.00327 104.899 5.43917 104.468C5.99395 103.919 6.25152 103.056 6.25152 101.841V101.174H2.68509C2.32845 101.174 2.05106 100.919 2.05106 100.547C2.05106 100.174 2.32845 99.9192 2.68509 99.9192H6.25152V99.4095C6.25152 98.3312 6.01376 97.4685 5.43917 96.9C5.00327 96.4491 4.34943 96.1942 3.45782 96.1942C2.76435 96.1942 2.32845 96.351 1.95199 96.5079C1.49628 96.7431 1.29814 96.9784 1.02075 96.9784C0.604666 96.9784 0.386719 96.7235 0.386719 96.3902C0.386719 96.1746 0.525413 95.9001 0.862243 95.6649C1.41702 95.2531 2.34826 94.9395 3.37856 94.9395C4.76551 94.9395 5.776 95.312 6.46947 96.0373C7.32146 96.9784 7.61866 98.2331 7.61866 99.7427V101.546Z" fill="#0B1E21"/>
<path d="M15.5441 105.703C15.5441 106.076 15.227 106.35 14.8704 106.35C14.4939 106.35 14.1967 106.056 14.1967 105.703V102.802H11.1256V105.703C11.1256 106.076 10.8284 106.35 10.4718 106.35C10.0953 106.35 9.77832 106.056 9.77832 105.703V99.1353C9.77832 98.7628 10.0953 98.4688 10.4718 98.4688C10.8483 98.4688 11.1256 98.7824 11.1256 99.1353V101.645H14.1967V99.1353C14.1967 98.7628 14.5138 98.4688 14.8704 98.4688C15.2469 98.4688 15.5441 98.7824 15.5441 99.1353V105.703Z" fill="#0B1E21"/>
<path d="M23.0332 102.802H18.8129V103.213C18.8129 104.429 19.328 105.193 20.5565 105.193C21.4283 105.193 21.9831 105.037 22.4982 104.762C22.7954 104.625 23.0926 104.782 23.2115 105.076C23.3106 105.35 23.2313 105.644 22.9539 105.801C22.2208 106.174 21.3887 106.35 20.5169 106.35C18.2977 106.35 17.4854 104.86 17.4854 103.115V101.704C17.4854 99.9587 18.3571 98.4688 20.5169 98.4688C22.7756 98.4688 23.5483 99.9391 23.5483 101.684V102.311C23.5483 102.586 23.3106 102.802 23.0332 102.802ZM22.2208 101.468C22.2208 100.292 21.7849 99.5274 20.5169 99.5274C19.3082 99.5274 18.8129 100.312 18.8129 101.488V101.743H22.2208V101.468Z" fill="#0B1E21"/>
<path d="M28.7006 106.331C28.126 106.331 27.4325 106.154 26.8579 105.742V108.37C26.8579 108.742 26.5607 109.036 26.1842 109.036C25.8078 109.036 25.5304 108.742 25.5304 108.37V100.429C25.5304 99.8217 25.3917 99.6256 25.0945 99.4688C24.9162 99.3707 24.8369 99.2335 24.8369 99.0178C24.8369 98.6257 25.1143 98.4297 25.4908 98.4297C25.7285 98.4297 26.0455 98.5277 26.3031 98.7434C26.4022 98.8414 26.5013 98.9786 26.5805 99.1159C27.1947 98.665 27.9278 98.4297 28.6015 98.4297C30.6423 98.4297 31.4744 99.5472 31.4744 101.508V102.9C31.4744 104.958 30.7413 106.331 28.7006 106.331ZM30.1271 101.449C30.1271 100.233 29.6714 99.606 28.4232 99.606C27.9675 99.606 27.3929 99.8021 26.8579 100.233V104.488C27.3532 104.997 28.0071 105.193 28.4628 105.193C29.6318 105.193 30.1073 104.429 30.1073 103.135V101.449H30.1271Z" fill="#0B1E21"/>
<path d="M34.1686 105.056C34.6837 104.115 34.763 102.782 34.763 101.174V99.1351C34.763 98.8018 35.0602 98.5273 35.397 98.5273H39.4786C39.8353 98.5273 40.1325 98.8018 40.1325 99.1547V105.056H40.8854C41.2024 105.056 41.4798 105.291 41.4798 105.624V108.134C41.4798 108.467 41.2222 108.742 40.8854 108.742C40.5485 108.742 40.2712 108.467 40.2712 108.134V106.252H34.1686V108.134C34.1686 108.467 33.8912 108.742 33.5544 108.742C33.2175 108.742 32.96 108.467 32.96 108.134V105.624C32.96 105.252 33.1977 105.056 33.4949 105.056H34.1686ZM38.8049 105.056V99.7037H36.0905V101.174C36.0905 102.586 35.9914 104.095 35.5357 105.056H38.8049Z" fill="#0B1E21"/>
<path d="M47.5431 101.841H48.3554L50.5547 98.8608C50.7132 98.6255 50.8915 98.4883 51.1491 98.4883C51.5256 98.4883 51.803 98.802 51.803 99.1353C51.803 99.2921 51.7435 99.4293 51.6643 99.547L49.4848 102.409C50.2575 103.37 50.9906 104.35 51.6841 105.37C51.7633 105.487 51.803 105.625 51.803 105.742C51.803 106.076 51.5454 106.389 51.1491 106.389C50.8915 106.389 50.6736 106.252 50.5547 106.017C49.8414 104.997 49.1281 103.978 48.3554 103.017H47.5431V105.703C47.5431 106.076 47.226 106.37 46.8694 106.37C46.4929 106.37 46.1957 106.056 46.1957 105.703V103.037H45.3834C44.6107 103.997 43.8776 104.997 43.1841 106.036C43.0454 106.272 42.8274 106.409 42.5897 106.409C42.1736 106.409 41.916 106.095 41.916 105.762C41.916 105.644 41.9556 105.507 42.0349 105.389C42.7284 104.37 43.4615 103.39 44.2342 102.429L42.0547 99.5666C41.9755 99.4489 41.916 99.3117 41.916 99.1549C41.916 98.8412 42.1934 98.5079 42.5699 98.5079C42.8274 98.5079 43.0256 98.6255 43.1643 98.8804L45.3636 101.86H46.1759V99.1941C46.1759 98.8216 46.4731 98.5471 46.8496 98.5471C47.226 98.5471 47.5232 98.8216 47.5232 99.1941V101.841H47.5431Z" fill="#0B1E21"/>
<path d="M54.5175 105.703C54.5175 106.076 54.2401 106.389 53.8439 106.389C53.4278 106.389 53.1504 106.076 53.1504 105.703V99.1353C53.1504 98.7628 53.4674 98.4883 53.8439 98.4883C54.2401 98.4883 54.5175 98.7824 54.5175 99.1353V103.488L58.0443 99.645V99.1353C58.0443 98.7628 58.3415 98.4883 58.7378 98.4883C59.1143 98.4883 59.3916 98.7824 59.3916 99.1353V105.703C59.3916 106.076 59.1143 106.389 58.718 106.389C58.3415 106.389 58.0443 106.076 58.0443 105.703V101.37L54.5175 105.213V105.703Z" fill="#0B1E21"/>
<path d="M67.3956 105.703C67.3956 106.076 67.0786 106.35 66.722 106.35C66.3455 106.35 66.0483 106.056 66.0483 105.703V102.802H62.9772V105.703C62.9772 106.076 62.68 106.35 62.3234 106.35C61.9469 106.35 61.6299 106.056 61.6299 105.703V99.1353C61.6299 98.7628 61.9469 98.4688 62.3234 98.4688C62.6998 98.4688 62.9772 98.7824 62.9772 99.1353V101.645H66.0285V99.1353C66.0285 98.7628 66.3455 98.4688 66.7021 98.4688C67.0786 98.4688 67.3758 98.7824 67.3758 99.1353V105.703H67.3956Z" fill="#0B1E21"/>
<path d="M74.8857 102.802H70.6654V103.213C70.6654 104.429 71.1805 105.193 72.409 105.193C73.2808 105.193 73.8356 105.037 74.3507 104.762C74.6479 104.625 74.9451 104.782 75.064 105.076C75.1631 105.35 75.0838 105.644 74.8064 105.801C74.0733 106.174 73.2412 106.35 72.3694 106.35C70.1502 106.35 69.3379 104.86 69.3379 103.115V101.704C69.3379 99.9587 70.2097 98.4688 72.3694 98.4688C74.6281 98.4688 75.4008 99.9391 75.4008 101.684V102.311C75.4008 102.586 75.1631 102.802 74.8857 102.802ZM74.0733 101.468C74.0733 100.292 73.6374 99.5274 72.3694 99.5274C71.1607 99.5274 70.6654 100.312 70.6654 101.488V101.743H74.0733V101.468Z" fill="#0B1E21"/>
<path d="M81.8006 98.5078C82.1176 98.5078 82.3752 98.7823 82.3752 99.096C82.3752 99.4097 82.1176 99.6841 81.8006 99.6841H79.9579V105.742C79.9579 106.115 79.6409 106.389 79.2645 106.389C78.888 106.389 78.6106 106.095 78.6106 105.742V99.6841H76.768C76.4509 99.6841 76.1934 99.4293 76.1934 99.096C76.1934 98.7823 76.4311 98.5078 76.768 98.5078H81.8006Z" fill="#0B1E21"/>
<path d="M84.5541 79.2152C84.8116 79.3133 84.9305 79.6073 84.8314 79.8622L84.7918 79.9798C84.6927 80.2347 84.3955 80.3523 84.138 80.2347L76.9655 77.2547C76.7079 77.1567 76.589 76.8626 76.6881 76.6077L76.7277 76.4901C76.8268 76.2352 77.124 76.1176 77.4014 76.2352L84.5541 79.2152Z" fill="#0B1E21"/>
<path d="M72.1118 78.3326C72.3892 78.3718 72.5675 78.6267 72.5279 78.9011L72.508 79.0188C72.4684 79.2932 72.191 79.4697 71.9136 79.4305L64.2458 78.1365C63.9684 78.0973 63.7901 77.8425 63.8297 77.568L63.8495 77.4504C63.8892 77.1759 64.1665 76.9994 64.4439 77.0386L72.1118 78.3326Z" fill="#0B1E21"/>
<path d="M59.5496 77.7053C59.827 77.7053 60.0648 77.9406 60.0648 78.1954V78.3131C60.0648 78.5875 59.827 78.8032 59.5496 78.8032L51.7827 78.7444C51.5053 78.7444 51.2676 78.5091 51.2676 78.2542V78.1366C51.2676 77.8621 51.5053 77.6465 51.7827 77.6465L59.5496 77.7053Z" fill="#0B1E21"/>
<path d="M46.9289 77.255C47.2063 77.2158 47.4638 77.4118 47.4836 77.6863L47.5035 77.8039C47.5431 78.0784 47.3251 78.3137 47.0477 78.3529L39.3205 79.2155C39.0431 79.2547 38.7855 79.0587 38.7657 78.7842L38.7459 78.6666C38.7063 78.3921 38.9242 78.1568 39.2016 78.1176L46.9289 77.255Z" fill="#0B1E21"/>
<path d="M34.03 76.941C34.3074 76.8822 34.565 77.0586 34.6245 77.3331L34.6443 77.4507C34.7037 77.7252 34.5254 77.9801 34.248 78.0389L26.6198 79.5485C26.3424 79.6073 26.0848 79.4309 26.0254 79.1564L26.0056 79.0388C25.9461 78.7643 26.1245 78.5094 26.4018 78.4506L34.03 76.941Z" fill="#0B1E21"/>
<path d="M21.25 76.4904C21.5076 76.3924 21.8048 76.5493 21.884 76.8041L21.9237 76.9218C22.0029 77.1766 21.8642 77.4707 21.6066 77.5491L14.2359 79.9998C13.9784 80.0978 13.6812 79.941 13.6019 79.6861L13.5623 79.5685C13.483 79.3136 13.6217 79.0195 13.8793 78.9411L21.25 76.4904Z" fill="#0B1E21"/>
<path d="M8.48985 76.1571C8.74742 76.0395 9.04463 76.1571 9.16351 76.412L9.22295 76.5296C9.34183 76.7845 9.22295 77.0786 8.96537 77.1962L1.87214 80.3526C1.61456 80.4703 1.31736 80.3526 1.19848 80.1174L1.13904 79.9997C1.02016 79.7449 1.13904 79.4508 1.39661 79.3332L8.48985 76.1571Z" fill="#0B1E21"/>
<path d="M84.2773 67.1195C84.5151 67.2568 84.5943 67.5704 84.4557 67.8057L84.3962 67.9037C84.2575 68.139 83.9405 68.2174 83.7027 68.0802L77.0454 64.1395C76.8076 64.0023 76.7284 63.6886 76.8671 63.4533L76.9265 63.3553C77.0652 63.12 77.3822 63.0416 77.62 63.1789L84.2773 67.1195Z" fill="#0B1E21"/>
<path d="M71.973 66.4325C72.2306 66.5305 72.3693 66.8246 72.2702 67.0795L72.2306 67.1971C72.1315 67.452 71.8343 67.5892 71.5768 67.4912L64.2854 64.8249C64.0278 64.7268 63.8891 64.4327 63.9882 64.1779L64.0278 64.0602C64.1269 63.8054 64.4241 63.6681 64.6817 63.7662L71.973 66.4325Z" fill="#0B1E21"/>
<path d="M59.4503 66.0214C59.7277 66.0802 59.8862 66.3547 59.8267 66.6292L59.7871 66.7468C59.7277 67.0213 59.4503 67.1781 59.1729 67.0997L51.6438 65.2176C51.3664 65.1392 51.2079 64.8843 51.2673 64.6099L51.3069 64.4922C51.3664 64.2177 51.6438 64.0609 51.9211 64.1393L59.4503 66.0214Z" fill="#0B1E21"/>
<path d="M47.0076 65.5319C47.285 65.5711 47.4831 65.8064 47.4435 66.0809L47.4237 66.1985C47.3841 66.473 47.1463 66.669 46.8491 66.6298L39.1416 65.7084C38.8643 65.6692 38.6661 65.4339 38.6859 65.1594L38.7057 65.0418C38.7454 64.7673 38.9831 64.5713 39.2803 64.6105L47.0076 65.5319Z" fill="#0B1E21"/>
<path d="M34.2674 65.041C34.5448 65.041 34.7826 65.2567 34.7826 65.5311V65.6488C34.7826 65.9233 34.5646 66.1389 34.2674 66.1389L26.5005 66.1781C26.2231 66.1781 25.9854 65.9625 25.9854 65.688V65.5704C25.9854 65.2959 26.2033 65.0802 26.5005 65.0606L34.2674 65.041Z" fill="#0B1E21"/>
<path d="M21.9831 64.5519C22.2605 64.5127 22.5181 64.7087 22.5577 64.9832L22.5775 65.1008C22.6172 65.3753 22.419 65.6302 22.1416 65.6694L14.4539 66.7281C14.1766 66.7673 13.919 66.5712 13.8794 66.2967L13.8595 66.1791C13.8199 65.9046 14.0181 65.6498 14.2954 65.6106L21.9831 64.5519Z" fill="#0B1E21"/>
<path d="M8.98583 64.2965C9.26322 64.2377 9.52079 64.4141 9.58024 64.6886L9.60005 64.8062C9.65949 65.0807 9.48117 65.3355 9.20378 65.3944L1.59537 66.9628C1.31798 67.0216 1.06041 66.8452 1.00097 66.5707L0.981159 66.453C0.921718 66.1786 1.10004 65.9237 1.37743 65.8649L8.98583 64.2965Z" fill="#0B1E21"/>
<path d="M84.1977 55.0425C84.4157 55.219 84.4751 55.5327 84.2968 55.7483L84.2176 55.8464C84.059 56.062 83.742 56.1012 83.5043 55.9444L77.3026 51.3175C77.0847 51.1411 77.0252 50.8274 77.2036 50.6118L77.2828 50.5137C77.4413 50.2981 77.7583 50.2589 77.9961 50.4157L84.1977 55.0425Z" fill="#0B1E21"/>
<path d="M71.8346 54.4735C72.0921 54.6108 72.1714 54.9049 72.0525 55.1401L71.9931 55.2578C71.8742 55.493 71.5572 55.591 71.2996 55.4538L64.4243 51.8857C64.1667 51.7484 64.0677 51.4543 64.2064 51.2191L64.2658 51.1014C64.3847 50.8662 64.7017 50.7682 64.9593 50.8858L71.8346 54.4735Z" fill="#0B1E21"/>
<path d="M59.4507 53.944C59.7083 54.042 59.847 54.3165 59.7678 54.5713L59.7281 54.689C59.6291 54.9438 59.3517 55.0811 59.0743 54.9831L51.7631 52.3952C51.5055 52.2971 51.3668 52.0227 51.4461 51.7482L51.4857 51.6306C51.5848 51.3757 51.8622 51.2385 52.1396 51.3365L59.4507 53.944Z" fill="#0B1E21"/>
<path d="M46.9479 53.4737C47.2253 53.5325 47.4036 53.807 47.3244 54.0619L47.3046 54.1795C47.2451 54.454 46.9677 54.6108 46.6903 54.552L39.1216 52.866C38.8442 52.8072 38.6659 52.5327 38.7253 52.2778L38.7451 52.1602C38.8046 51.8857 39.0819 51.7289 39.3593 51.7877L46.9479 53.4737Z" fill="#0B1E21"/>
<path d="M34.2481 52.8468C34.5255 52.8664 34.7435 53.1016 34.7237 53.3761V53.4937C34.7039 53.7682 34.4661 53.9839 34.1887 53.9643L26.4416 53.4937C26.1642 53.4741 25.9463 53.2389 25.9661 52.9644V52.8468C25.9859 52.5723 26.2237 52.3566 26.5011 52.3762L34.2481 52.8468Z" fill="#0B1E21"/>
<path d="M21.746 52.631C22.0234 52.631 22.2611 52.8663 22.2611 53.1211V53.2388C22.2611 53.5132 22.0234 53.7289 21.746 53.7289L13.979 53.6897C13.7016 53.6897 13.4639 53.474 13.4639 53.1996V53.0819C13.4639 52.8075 13.7016 52.5918 13.979 52.5918L21.746 52.631Z" fill="#0B1E21"/>
<path d="M9.00555 52.1007C9.28294 52.0615 9.54051 52.2575 9.58014 52.532L9.59996 52.6497C9.63958 52.9241 9.44145 53.179 9.16406 53.2182L1.47641 54.2769C1.19902 54.3161 0.941437 54.12 0.90181 53.8456L0.882002 53.7279C0.842375 53.4535 1.04051 53.1986 1.3179 53.1594L9.00555 52.1007Z" fill="#0B1E21"/>
<path d="M83.9402 42.8292C84.1383 43.0253 84.1581 43.3389 83.96 43.535L83.8808 43.633C83.6826 43.8291 83.3656 43.8291 83.1675 43.633L77.5602 38.32C77.3621 38.1239 77.3423 37.8103 77.5404 37.6142L77.6197 37.5162C77.8178 37.3201 78.1348 37.3201 78.333 37.5162L83.9402 42.8292Z" fill="#0B1E21"/>
<path d="M71.7742 42.26C72.012 42.4168 72.0714 42.7305 71.9129 42.9462L71.8337 43.0442C71.6751 43.2795 71.3581 43.3383 71.1402 43.1814L64.7008 38.8879C64.463 38.731 64.4036 38.4174 64.5621 38.2017L64.6414 38.1037C64.7999 37.8684 65.1169 37.8096 65.3546 37.9664L71.7742 42.26Z" fill="#0B1E21"/>
<path d="M59.2529 41.7892C59.5105 41.9068 59.6095 42.2205 59.4907 42.4557L59.4312 42.5734C59.3123 42.8086 58.9953 42.9067 58.7576 42.789L51.8228 39.3385C51.5653 39.2209 51.4662 38.9072 51.5851 38.6719L51.6445 38.5543C51.7634 38.2994 52.0804 38.221 52.3182 38.3386L59.2529 41.7892Z" fill="#0B1E21"/>
<path d="M46.8296 41.4355C47.0872 41.5336 47.2259 41.8276 47.1268 42.0825L47.0872 42.2001C46.9881 42.455 46.6909 42.5726 46.4333 42.4746L39.2014 39.6907C38.9438 39.5926 38.8051 39.2986 38.9042 39.0437L38.9438 38.9261C39.0429 38.6712 39.3401 38.5536 39.5977 38.6516L46.8296 41.4355Z" fill="#0B1E21"/>
<path d="M34.2673 41.0445C34.5447 41.1229 34.7032 41.3974 34.6239 41.6523L34.5843 41.7699C34.505 42.0248 34.2276 42.1816 33.9701 42.1228L26.4806 40.1034C26.2032 40.025 26.0447 39.7506 26.1239 39.4957L26.1635 39.3781C26.2428 39.1036 26.5202 38.9663 26.7778 39.0252L34.2673 41.0445Z" fill="#0B1E21"/>
<path d="M21.8054 41.0445C22.0828 41.1229 22.2413 41.3974 22.1621 41.6523L22.1225 41.7699C22.0432 42.0248 21.7658 42.1816 21.5082 42.1228L14.0186 40.1034C13.7413 40.025 13.5827 39.7506 13.662 39.4957L13.7016 39.3781C13.7809 39.1036 14.0583 38.9663 14.3158 39.0252L21.8054 41.0445Z" fill="#0B1E21"/>
<path d="M9.08447 40.3968C9.36186 40.4164 9.56 40.6713 9.54018 40.9458L9.52037 41.0634C9.50056 41.3379 9.24298 41.5339 8.96559 41.5143L1.23832 40.7497C0.960934 40.7301 0.762801 40.4752 0.782614 40.2008L0.802424 40.0831C0.822237 39.8087 1.07982 39.6126 1.35721 39.6322L9.08447 40.3968Z" fill="#0B1E21"/>
<path d="M83.6434 30.8499C83.8217 31.0655 83.8019 31.3792 83.6038 31.5557L83.5047 31.6341C83.2868 31.8105 82.9697 31.7909 82.7914 31.5949L77.6399 25.8309C77.4616 25.6153 77.4616 25.3016 77.6795 25.1252L77.7786 25.0467C77.9965 24.8703 78.3136 24.8899 78.4919 25.0859L83.6434 30.8499Z" fill="#0B1E21"/>
<path d="M71.6159 30.3208C71.8339 30.4973 71.8735 30.8109 71.6952 31.0266L71.6159 31.1246C71.4376 31.3403 71.1206 31.3599 70.9027 31.203L64.8595 26.3605C64.6416 26.1841 64.6019 25.8704 64.7803 25.6548L64.8595 25.5567C65.0378 25.3411 65.3549 25.3019 65.5728 25.4783L71.6159 30.3208Z" fill="#0B1E21"/>
<path d="M59.1537 29.8898C59.3915 30.0271 59.4707 30.3407 59.3122 30.576L59.2528 30.674C59.1141 30.9093 58.7971 30.9877 58.5593 30.8309L51.9614 26.7922C51.7236 26.6353 51.6444 26.3413 51.7831 26.106L51.8425 26.008C51.9812 25.7727 52.2982 25.6943 52.536 25.8511L59.1537 29.8898Z" fill="#0B1E21"/>
<path d="M46.8101 29.3989C47.0677 29.5166 47.1866 29.8106 47.0677 30.0655L47.0082 30.1831C46.8894 30.438 46.5922 30.536 46.3346 30.438L39.2413 27.2816C38.9838 27.1639 38.8649 26.8698 38.9838 26.615L39.0432 26.4973C39.1621 26.2425 39.4593 26.1444 39.7169 26.2425L46.8101 29.3989Z" fill="#0B1E21"/>
<path d="M34.3077 29.0254C34.5652 29.1234 34.7237 29.3979 34.6247 29.6528L34.585 29.7704C34.5058 30.0253 34.2086 30.1625 33.951 30.0841L26.5804 27.6334C26.303 27.5354 26.1643 27.2609 26.2634 27.0061L26.303 26.8884C26.3822 26.6336 26.6794 26.4963 26.937 26.5748L34.3077 29.0254Z" fill="#0B1E21"/>
<path d="M21.6462 28.8101C21.9236 28.8885 22.0821 29.163 22.0029 29.4179L21.9632 29.5355C21.884 29.81 21.6066 29.9472 21.349 29.8884L13.8595 27.8691C13.5821 27.7907 13.4236 27.5162 13.5028 27.2613L13.5424 27.1437C13.6217 26.8692 13.8991 26.732 14.1567 26.7908L21.6462 28.8101Z" fill="#0B1E21"/>
<path d="M9.16422 28.4577C9.44161 28.4969 9.61993 28.7713 9.5803 29.0262L9.56049 29.1438C9.52086 29.4183 9.24347 29.5948 8.96609 29.5556L1.31807 28.242C1.04068 28.2028 0.862354 27.9283 0.901981 27.6735L0.921796 27.5558C0.961423 27.2813 1.23881 27.1049 1.5162 27.1441L9.16422 28.4577Z" fill="#0B1E21"/>
<path d="M83.6233 18.499C83.8016 18.7147 83.7818 19.0284 83.5638 19.2048L83.4648 19.2832C83.2468 19.4597 82.9298 19.4205 82.7515 19.2048L77.7981 13.284C77.6198 13.0683 77.6396 12.7547 77.8575 12.5782L77.9566 12.4998C78.1746 12.3233 78.4916 12.3626 78.6699 12.5782L83.6233 18.499Z" fill="#0B1E21"/>
<path d="M83.6233 6.16697C83.8016 6.38263 83.7818 6.69631 83.5638 6.87276L83.4648 6.95118C83.2468 7.12763 82.9298 7.08842 82.7515 6.87276L77.7981 0.951979C77.6198 0.736322 77.6396 0.422618 77.8575 0.24617L77.9566 0.167769C78.1746 -0.00867827 78.4916 0.0305131 78.6699 0.24617L83.6233 6.16697Z" fill="#0B1E21"/>
<path d="M71.4381 17.9689C71.6561 18.1453 71.6759 18.459 71.4976 18.6747L71.4183 18.7727C71.24 18.9884 70.923 19.008 70.705 18.8119L64.8204 13.8126C64.6025 13.6361 64.5827 13.3225 64.761 13.1068L64.8402 13.0088C65.0186 12.7931 65.3356 12.7735 65.5535 12.9696L71.4381 17.9689Z" fill="#0B1E21"/>
<path d="M71.3191 5.48011C71.5172 5.67617 71.5371 5.98985 71.3389 6.1859L71.2597 6.28393C71.0615 6.47998 70.7445 6.47998 70.5464 6.30353L64.9392 0.990506C64.741 0.794453 64.7212 0.480773 64.9193 0.28472L64.9986 0.186694C65.1967 -0.00935883 65.5137 -0.00935404 65.7119 0.167093L71.3191 5.48011Z" fill="#0B1E21"/>
<path d="M59.0152 17.6164C59.2529 17.7733 59.3124 18.0869 59.1538 18.3026L59.0746 18.4006C58.9161 18.6359 58.5991 18.6751 58.3613 18.5183L51.9615 14.1659C51.7238 14.009 51.6643 13.6953 51.8228 13.4797L51.9021 13.3817C52.0606 13.1464 52.3776 13.1072 52.6154 13.264L59.0152 17.6164Z" fill="#0B1E21"/>
<path d="M58.9557 4.95106C59.1736 5.10791 59.2331 5.42161 59.0746 5.65687L58.9953 5.7549C58.8368 5.97056 58.5198 6.02937 58.282 5.85292L52.0209 1.3045C51.803 1.14766 51.7435 0.833976 51.9021 0.598713L51.9813 0.500686C52.1398 0.285028 52.4568 0.226212 52.6946 0.40266L58.9557 4.95106Z" fill="#0B1E21"/>
<path d="M46.6705 17.1648C46.9281 17.302 47.0271 17.5961 46.8885 17.8314L46.829 17.949C46.7101 18.1843 46.3931 18.2823 46.1554 18.1647L39.2602 14.6161C39.0027 14.4789 38.9036 14.1848 39.0423 13.9495L39.1017 13.8319C39.2206 13.5966 39.5376 13.4986 39.7952 13.6163L46.6705 17.1648Z" fill="#0B1E21"/>
<path d="M46.5325 5.08782C46.7702 5.24466 46.8297 5.55835 46.691 5.774L46.6315 5.87203C46.473 6.10729 46.156 6.16611 45.9381 6.00927L39.4392 1.79413C39.2015 1.63729 39.142 1.32361 39.2807 1.10795L39.3402 1.00992C39.4987 0.774659 39.7959 0.715853 40.0336 0.872695L46.5325 5.08782Z" fill="#0B1E21"/>
<path d="M34.1682 16.9694C34.4258 17.087 34.5447 17.3811 34.4258 17.636L34.3664 17.7536C34.2475 18.0085 33.9503 18.1065 33.6927 17.9889L26.6193 14.8128C26.3617 14.6952 26.2428 14.4011 26.3617 14.1462L26.4211 14.0286C26.54 13.7737 26.8372 13.6757 27.0948 13.7737L34.1682 16.9694Z" fill="#0B1E21"/>
<path d="M34.1292 4.32307C34.3867 4.4407 34.4858 4.75439 34.3669 4.98965L34.3075 5.10728C34.1886 5.36215 33.8716 5.46018 33.6338 5.32294L26.6793 1.91162C26.4217 1.79399 26.3226 1.48032 26.4415 1.24506L26.501 1.12741C26.6198 0.872539 26.9369 0.774518 27.1746 0.911755L34.1292 4.32307Z" fill="#0B1E21"/>
<path d="M21.5275 16.7334C21.7851 16.8314 21.9238 17.1255 21.8247 17.3804L21.7851 17.498C21.686 17.7529 21.3888 17.8901 21.1312 17.7921L13.8596 15.0866C13.602 14.9885 13.4633 14.6945 13.5624 14.4396L13.602 14.322C13.7011 14.0671 13.9983 13.9299 14.2559 14.0279L21.5275 16.7334Z" fill="#0B1E21"/>
<path d="M21.4879 4.26456C21.7455 4.38219 21.8643 4.67627 21.7455 4.93114L21.686 5.04877C21.5671 5.30364 21.2699 5.42127 21.0124 5.30364L13.9191 2.18641C13.6615 2.06877 13.5426 1.77469 13.6615 1.51982L13.7209 1.4022C13.8398 1.14733 14.137 1.02971 14.3946 1.14734L21.4879 4.26456Z" fill="#0B1E21"/>
<path d="M9.02549 16.3223C9.30288 16.4008 9.46138 16.6557 9.40194 16.9301L9.36232 17.0478C9.28306 17.3222 9.02549 17.4791 8.7481 17.4006L1.21896 15.4793C0.941568 15.4009 0.78306 15.146 0.8425 14.8716L0.882131 14.7539C0.961385 14.4794 1.21896 14.3226 1.49634 14.401L9.02549 16.3223Z" fill="#0B1E21"/>
<path d="M8.98594 3.85385C9.24351 3.95188 9.40202 4.22635 9.30295 4.48122L9.26333 4.59885C9.16426 4.85372 8.88687 4.99095 8.60948 4.89293L1.27848 2.36385C1.0209 2.26582 0.862391 1.99135 0.961459 1.73649L1.00108 1.61884C1.10015 1.36397 1.37754 1.22673 1.65493 1.32476L8.98594 3.85385Z" fill="#0B1E21"/>
</g>
<defs>
<clipPath id="clip0_604_2917">
<rect width="85" height="149" fill="white"/>
</clipPath>
</defs>
</svg>
