<svg width="123" height="28" viewBox="0 0 123 28" fill="none" xmlns="http://www.w3.org/2000/svg">
<g clip-path="url(#clip0_1049_2385)">
<path d="M11.7241 11.3506C12.8488 10.2617 14.4996 9.99243 15.8844 10.5428L14.9462 11.4512C14.1075 11.2906 13.2042 11.525 12.5543 12.1542C11.9043 12.7834 11.6622 13.658 11.828 14.4699L10.8899 15.3782C10.3213 14.0375 10.5994 12.4394 11.7241 11.3506Z" fill="#FC121B"/>
<path d="M10.8897 10.5422C12.4817 9.001 14.8793 8.71513 16.7701 9.68447L16.3329 10.1077C14.6908 9.34861 12.6648 9.62738 11.3048 10.944C9.94479 12.2607 9.65686 14.2221 10.441 15.8118L10.0038 16.2351C9.00245 14.4045 9.29779 12.0834 10.8897 10.5422Z" fill="#F85D1F"/>
<path d="M8.39214 8.12392C11.3707 5.24035 16.0026 4.93288 19.3337 7.20156L18.4889 8.0195C15.63 6.18662 11.7408 6.48932 9.22232 8.92765C6.7037 11.3659 6.39102 15.1311 8.28424 17.8989L7.43938 18.7167C5.096 15.4918 5.41357 11.0076 8.39214 8.12392Z" fill="#F4C52E"/>
<path d="M7.55769 7.31758C10.998 3.987 16.3762 3.67614 20.1782 6.38501L19.758 6.79183C16.1901 4.30206 11.1833 4.61125 7.97275 7.71942C4.76227 10.8276 4.4429 15.6748 7.01468 19.129L6.59443 19.5358C3.79637 15.855 4.11746 10.6481 7.55769 7.31758Z" fill="#8AB65A"/>
<path d="M5.68114 5.50022C1.28204 9.75913 0.948829 16.5397 4.72137 21.3461L3.23882 22.7814C-1.38027 17.2967 -1.04972 9.2076 4.23046 4.09579C9.51061 -1.01607 17.8661 -1.33608 23.5313 3.13576L22.0487 4.57108C17.0841 0.918766 10.0802 1.24136 5.68114 5.50022Z" fill="#1AA5B8"/>
<path d="M35.8347 8.52971V27.4882H31.79V0.310547L34.9136 0.349315L48.5695 19.4628V0.349315H52.5742V27.4882H49.3705L35.8347 8.52971Z" fill="white"/>
<path fill-rule="evenodd" clip-rule="evenodd" d="M56.9766 27.4887V0.388672H64.0834C73.2543 0.388672 77.8591 7.17337 77.8591 13.9581C77.8591 20.7428 73.2543 27.4887 64.0834 27.4887H56.9766ZM61.0212 4.30443V23.573H64.0834C70.5707 23.573 73.8546 18.7655 73.8546 13.9581C73.8546 9.15064 70.5707 4.30443 64.0834 4.30443H61.0212Z" fill="white"/>
<path d="M85.6027 15.8946H98.2976V11.9401H85.6027V4.30248H98.5778V0.386719H81.5186V27.4868H98.6184V23.571H85.6027V15.8946Z" fill="white"/>
<path d="M117.754 27.4884L107.542 15.5862V13.7252H112.267C115.672 13.7252 117.354 11.3602 117.354 8.9953C117.354 6.66908 115.672 4.30414 112.267 4.30414H106.061V27.4884H102.056V0.349609H112.267C118.355 0.349609 121.398 4.69181 121.398 8.9953C121.398 12.8335 118.955 16.4779 114.149 17.292L123 27.4884H117.754Z" fill="white"/>
<path d="M24.6312 23.8461C19.3121 28.9957 10.8899 29.3971 5.30176 24.8207L8.232 21.9839C12.1442 24.9561 17.9505 24.6697 21.7162 21.024C25.482 17.3783 25.7777 11.7571 22.7077 7.96961L25.6379 5.13281C30.3649 10.5428 29.9504 18.6965 24.6312 23.8461Z" fill="white"/>
</g>
<defs>
<clipPath id="clip0_1049_2385">
<rect width="123" height="28" fill="white"/>
</clipPath>
</defs>
</svg>
